<svg width="2081" height="585" viewBox="0 0 2081 585" fill="none" xmlns="http://www.w3.org/2000/svg">
<g clip-path="url(#clip0_88_41)">
<path d="M1900.5 65.138H2080.59V0H1873.68L1788.1 85.5736V194.776H2015.45V259.914H1788.1V325.052H2080.59V129.638H1853.24V112.395L1900.5 65.138Z" fill="#00F3A7"/>
<path d="M1430.48 85.5736V325.052H1495.62V112.395L1542.88 65.138H1657.83V325.052H1722.96V0H1516.05L1430.48 85.5736Z" fill="#00F3A7"/>
<path d="M357.623 345.486V584.964H650.105V519.826H422.761V454.688H650.105V259.912H443.196L357.623 345.486ZM584.967 325.05V390.188H422.122V372.946L469.379 325.689H584.967V325.05Z" fill="#00F3A7"/>
<path d="M1072.87 85.5736V325.052H1365.35V259.914H1138V194.776H1365.35V0H1158.44L1072.87 85.5736ZM1300.21 65.138V130.276H1137.37V113.034L1184.62 65.7766H1300.21V65.138Z" fill="#00F3A7"/>
<path d="M65.1381 280.352V65.1406H0V584.968H65.1381V372.312L112.395 325.055H227.345V584.968H292.483V259.916H85.5735L65.1381 280.352Z" fill="#00F3A7"/>
<path d="M780.376 0H682.669L584.961 97.7071V194.776H650.1V124.529L709.49 65.138H780.376V0Z" fill="#00F3A7"/>
<path d="M1072.86 460.433L1013.47 519.823H942.583V584.961H1040.29L1138 487.254V390.186H1072.86V460.433Z" fill="#00F3A7"/>
<path d="M942.597 455.329H1007.73V367.201L913.859 292.484L1007.73 217.767V129.639H942.597V186.475L861.493 250.974L780.39 186.475V129.639H715.252V217.767L809.127 292.484L715.252 367.201V455.329H780.39V398.493L861.493 333.993L942.597 398.493V455.329Z" fill="#00F3A7"/>
</g>
<defs>
<clipPath id="clip0_88_41">
<rect width="2081" height="585" fill="white"/>
</clipPath>
</defs>
</svg>
